<svg width="39" height="39" viewBox="0 0 39 39" fill="none" xmlns="http://www.w3.org/2000/svg">
<g clip-path="url(#clip0_3_1100)">
<path d="M-8.35645 0.991333H47.7305V38.3826H-8.35645V0.991333Z" fill="white"/>
<path d="M-8.35645 0.991333H19.687V38.3826H-8.35645V0.991333Z" fill="#006633"/>
<path d="M27.7821 15.013C26.7533 13.2309 25.1651 11.8382 23.264 11.0507C21.3628 10.2632 19.255 10.125 17.2673 10.6576C15.2796 11.1902 13.5233 12.3638 12.2706 13.9963C11.0179 15.6289 10.3389 17.6292 10.3389 19.6869C10.3389 21.7447 11.0179 23.745 12.2706 25.3775C13.5233 27.0101 15.2796 28.1837 17.2673 28.7162C19.255 29.2488 21.3628 29.1107 23.264 28.3232C25.1651 27.5357 26.7533 26.1429 27.7821 24.3609C26.8138 25.5703 25.4937 26.4492 24.0043 26.8759C22.5148 27.3027 20.9296 27.2563 19.4677 26.7432C18.0058 26.23 16.7393 25.2755 15.8434 24.0114C14.9474 22.7474 14.4662 21.2363 14.4662 19.6869C14.4662 18.1376 14.9474 16.6265 15.8434 15.3624C16.7393 14.0984 18.0058 13.1439 19.4677 12.6307C20.9296 12.1176 22.5148 12.0712 24.0043 12.498C25.4937 12.9247 26.8138 13.8036 27.7821 15.013ZM28.1419 19.6869L19.6867 16.9397L24.9123 24.1321V15.2418L19.6867 22.4342L28.1419 19.6869Z" fill="#D21034"/>
</g>
<defs>
<clipPath id="clip0_3_1100">
<rect x="0.991211" y="0.991333" width="37.3913" height="37.3913" rx="18.6957" fill="white"/>
</clipPath>
</defs>
</svg>
