<svg width="39" height="39" viewBox="0 0 39 39" fill="none" xmlns="http://www.w3.org/2000/svg">
<g clip-path="url(#clip0_3_1107)">
<path d="M-8.35645 0.991333H47.7305V38.3826H-8.35645V0.991333Z" fill="white"/>
<path d="M-8.35645 0.991333H47.7305V12.2087H-8.35645V0.991333Z" fill="black"/>
<path d="M-8.35645 27.1653H47.7305V38.3827H-8.35645V27.1653Z" fill="#006600"/>
<path d="M13.0084 30.7876L13.4131 31.0213L24.3298 12.1131C24.9682 11.9421 25.3188 11.3349 25.6693 10.7277C25.903 10.323 26.8378 8.70387 27.2429 6.60006C25.6235 8.00278 24.6887 9.62188 24.455 10.0266C24.1045 10.6338 23.7539 11.241 23.925 11.8794L13.0084 30.7876Z" fill="black" stroke="black" stroke-width="0.233696"/>
<path d="M13.0084 30.7876L13.4131 31.0213L24.3298 12.1131C24.9682 11.9421 25.3188 11.3349 25.6693 10.7277C25.903 10.323 26.8378 8.70387 27.2429 6.60006C25.6235 8.00278 24.6887 9.62188 24.455 10.0266C24.1045 10.6338 23.7539 11.241 23.925 11.8794L13.0084 30.7876Z" fill="white"/>
<path d="M26.3656 30.7876L25.9609 31.0213L15.0442 12.1131C14.4058 11.9421 14.0552 11.3349 13.7047 10.7277C13.471 10.323 12.5362 8.70387 12.1311 6.60006C13.7505 8.00278 14.6853 9.62188 14.919 10.0266C15.2696 10.6338 15.6201 11.241 15.449 11.8794L26.3656 30.7876Z" fill="black" stroke="black" stroke-width="0.233696"/>
<path d="M26.3656 30.7876L25.9609 31.0213L15.0442 12.1131C14.4058 11.9421 14.0552 11.3349 13.7047 10.7277C13.471 10.323 12.5362 8.70387 12.1311 6.60006C13.7505 8.00278 14.6853 9.62188 14.919 10.0266C15.2696 10.6338 15.6201 11.241 15.449 11.8794L26.3656 30.7876Z" fill="white"/>
<path d="M-8.35645 14.0783V25.2957H15.2468C15.9479 27.1653 18.2849 30.9044 19.687 30.9044C21.0892 30.9044 23.4262 27.1653 24.1273 25.2957H47.7305V14.0783H24.1273C23.4262 12.2087 21.0892 8.4696 19.687 8.4696C18.2849 8.4696 15.9479 12.2087 15.2468 14.0783H-8.35645Z" fill="#BB0000"/>
<path d="M24.1275 25.2956C24.8285 23.4261 25.2959 21.5565 25.2959 19.6869C25.2959 17.8174 24.8285 15.9478 24.1275 14.0782C23.4264 15.9478 22.959 17.8174 22.959 19.6869C22.959 21.5565 23.4264 23.4261 24.1275 25.2956Z" fill="black"/>
<path d="M15.2466 25.2956C14.5455 23.4261 14.0781 21.5565 14.0781 19.6869C14.0781 17.8174 14.5455 15.9478 15.2466 14.0782C15.9476 15.9478 16.415 17.8174 16.415 19.6869C16.415 21.5565 15.9476 23.4261 15.2466 25.2956Z" fill="black"/>
<path d="M19.6867 21.0891C20.203 21.0891 20.6215 20.4614 20.6215 19.687C20.6215 18.9126 20.203 18.2848 19.6867 18.2848C19.1705 18.2848 18.752 18.9126 18.752 19.687C18.752 20.4614 19.1705 21.0891 19.6867 21.0891Z" fill="white"/>
<path d="M19.9209 21.0541C19.9209 21.0541 20.8557 22.9236 20.8557 25.9617C20.8557 28.9997 19.9209 30.8693 19.9209 30.8693V21.0541Z" fill="white"/>
<path d="M19.4531 18.3198C19.4531 18.3198 18.5183 16.4503 18.5183 13.4122C18.5183 10.3742 19.4531 8.50461 19.4531 8.50461V18.3198Z" fill="white"/>
<path d="M19.4531 21.0541C19.4531 21.0541 18.5183 22.9236 18.5183 25.9617C18.5183 28.9997 19.4531 30.8693 19.4531 30.8693V21.0541Z" fill="white"/>
<path d="M19.9209 18.3198C19.9209 18.3198 20.8557 16.4503 20.8557 13.4122C20.8557 10.3742 19.9209 8.50461 19.9209 8.50461V18.3198Z" fill="white"/>
</g>
<defs>
<clipPath id="clip0_3_1107">
<rect x="0.991211" y="0.991333" width="37.3913" height="37.3913" rx="18.6957" fill="white"/>
</clipPath>
</defs>
</svg>
