<svg width="39" height="39" viewBox="0 0 39 39" fill="none" xmlns="http://www.w3.org/2000/svg">
<g clip-path="url(#clip0_3_1055)">
<path d="M0.991211 0.991333H75.7738V38.3826H0.991211V0.991333Z" fill="#006400"/>
<path d="M1.58496 6.33301H75.7741V33.0411H1.58496V6.33301Z" fill="#FFD200"/>
<path d="M1.58496 11.6746H75.7741V27.6994H1.58496V11.6746Z" fill="#D40000"/>
<path d="M1.58496 17.0161H75.7741V22.3577H1.58496V17.0161Z" fill="black"/>
<mask id="mask0_3_1055" style="mask-type:luminance" maskUnits="userSpaceOnUse" x="0" y="0" width="39" height="39">
<path d="M0.991211 0.991333H38.3825V38.3826H0.991211V0.991333Z" fill="white"/>
</mask>
<g mask="url(#mask0_3_1055)">
<path d="M25.9187 19.687L0.991211 38.3826V0.991333L25.9187 19.687Z" fill="black" stroke="black" stroke-width="1.78054"/>
</g>
<path d="M25.9187 19.687L0.991211 38.3826V0.991333L25.9187 19.687Z" fill="white"/>
<path d="M10.4876 10.3971L15.3716 25.4287L2.58496 16.1387H18.3902L5.60357 25.4287L10.4876 10.3971Z" fill="#D40000"/>
<path d="M7.78688 14.5829C7.73347 14.4493 7.74237 14.3009 7.81062 14.1733C7.87888 14.0487 8.00352 13.9597 8.14596 13.9359C8.2973 13.9092 8.44865 13.9003 8.60296 13.9033C8.74837 13.6777 8.99171 13.5323 9.2588 13.5116C9.52588 13.4938 9.78702 13.6006 9.96508 13.8024C10.1758 14.0428 10.3004 14.3454 10.3271 14.663L10.4369 16.0399L14.6271 19.3191C14.6725 19.3558 14.7039 19.407 14.7161 19.4641C14.7283 19.5211 14.7205 19.5807 14.6941 19.6327C14.6678 19.6848 14.6243 19.7263 14.5711 19.7502C14.5179 19.7741 14.458 19.7791 14.4016 19.7642L14.2265 19.7138C13.5529 20.1322 13.0543 20.8622 12.9564 21.6457L12.7041 23.6399H8.27356L7.68599 21.3578C7.47529 21.1026 7.44561 20.7435 7.6118 20.4586C7.82843 20.0877 8.08957 19.7434 8.3893 19.4348C8.58516 19.239 8.67419 18.96 8.63561 18.684C8.59406 18.411 8.57329 18.135 8.57032 17.859C8.56735 17.6305 8.6178 17.402 8.71573 17.1973L8.65935 15.1378C8.65044 14.8944 8.5169 14.6719 8.30621 14.5532L7.78688 14.5829Z" fill="#FFD200" stroke="black" stroke-width="0.112767" stroke-linecap="round" stroke-linejoin="round"/>
<path d="M8.30674 14.5531L8.80233 14.5234M8.71627 17.1972L10.4375 16.0399M11.1259 19.503C11.8055 19.6929 12.2299 19.6366 12.4287 19.2033M9.90033 17.5236C9.71634 18.0548 10.0487 18.5267 10.4938 18.6543L14.227 19.7137M8.1732 21.5862C8.03373 21.0402 8.23552 20.0639 9.09908 19.6573C9.4997 19.4704 9.63028 19.0608 9.63325 18.7136C9.63325 18.5831 9.63621 18.4317 9.82317 18.3575M8.1732 21.5862C8.00702 21.4468 7.87942 21.2746 7.8171 21.0402L7.68652 21.3577M8.1732 21.5862C8.2652 21.3933 8.34532 21.1975 8.41358 20.9987C8.49073 21.153 8.55305 21.3637 8.60647 21.5744C8.5946 21.0966 8.84684 20.7464 9.17921 20.598L10.4671 20.0253C10.8856 19.8383 11.2862 19.4674 11.3782 18.9036M13.5801 20.2686H9.91813M7.76071 21.6456H12.9569M8.96258 22.7762H12.8115M8.96258 22.7762L8.57383 21.6456M8.96258 22.7762V23.6398M8.77562 22.1293L9.15547 21.7495L9.53532 22.1293L9.91516 21.7495L10.295 22.1293L10.6749 21.7495L11.0547 22.1293L11.4346 21.7495L11.8144 22.1293L12.1943 21.7495L12.5741 22.1293L12.9421 21.7613M8.88839 22.5596L9.15547 22.2925L9.53532 22.6724L9.91516 22.2925L10.295 22.6724L10.6749 22.2925L11.0547 22.6724L11.4346 22.2925L11.8144 22.6724L12.1943 22.2925L12.5741 22.6724L12.862 22.3845" stroke="black" stroke-width="0.112767" stroke-linecap="round" stroke-linejoin="round"/>
<path d="M9.2978 14.4492C9.42236 14.4492 9.52334 14.3483 9.52334 14.2237C9.52334 14.0991 9.42236 13.9982 9.2978 13.9982C9.17324 13.9982 9.07227 14.0991 9.07227 14.2237C9.07227 14.3483 9.17324 14.4492 9.2978 14.4492Z" stroke="black" stroke-width="0.112767" stroke-linecap="round" stroke-linejoin="round"/>
<path d="M10.3063 21.3933C10.5439 21.3933 10.7366 21.2007 10.7366 20.963C10.7366 20.7254 10.5439 20.5327 10.3063 20.5327C10.0686 20.5327 9.87598 20.7254 9.87598 20.963C9.87598 21.2007 10.0686 21.3933 10.3063 21.3933Z" stroke="black" stroke-width="0.112767" stroke-linecap="round" stroke-linejoin="round"/>
<path d="M12.0123 21.3933C12.25 21.3933 12.4426 21.2007 12.4426 20.963C12.4426 20.7254 12.25 20.5327 12.0123 20.5327C11.7747 20.5327 11.582 20.7254 11.582 20.963C11.582 21.2007 11.7747 21.3933 12.0123 21.3933Z" stroke="black" stroke-width="0.112767" stroke-linecap="round" stroke-linejoin="round"/>
</g>
<defs>
<clipPath id="clip0_3_1055">
<rect x="0.991211" y="0.991333" width="37.3913" height="37.3913" rx="18.6957" fill="white"/>
</clipPath>
</defs>
</svg>
